:SAMPLES-PER-SECOND 30
:FULLY-SPECIFIED
:DEGREES
284
root  39.8134 33.1985 -68.2029 7.08551 -29.3094 -1.14525
RightUpLeg  -7.09423 -2.92838 2.61144
RightLeg  14.286 -2.40359 -0.448859
RightFoot  -7.29412 -0.00580562 0.286492
RightToes  -37.9791 -0.202544 -0.303424
Spine  4.86145 -2.73306 1.31843
Spine1  9.20814 -5.42486 1.89784
HEad  7.18442 -13.1637 6.81077
LeftShoulder1  0 -2.42657e-020 -4.95415e-022
LeftArm  -7.06852 3.67752 -74.3343
LeftForeArm  53.2984 -37.2902 -7.68256
LeftHand  0.210095 -4.49069 -5.73328
RightShoulder  0 2.42657e-020 1.07489e-018
RightArm  -22.6933 -10.7365 71.2272
RightForeArm  42.626 34.6022 6.97317
RightHand  -0.450758 22.5825 -1.88785
LeftUpLeg  -14.4858 -2.77288 5.82427
LeftLeg  37.4007 3.33696 2.21982
LeftFoot  -9.75298 -0.0634845 -0.7441
LeftToes  -14.557 3.33339e-006 -4.73431e-007
285
root  39.7227 33.1433 -67.868 7.37883 -29.9104 -1.50804
RightUpLeg  -6.66858 -2.63614 2.68045
RightLeg  14.2115 -2.07967 -0.385503
RightFoot  -7.2149 -0.00871743 0.239299
RightToes  -38.5172 -0.206748 -0.306594
Spine  4.94532 -2.72348 1.60109
Spine1  9.46892 -5.38675 2.37063
HEad  7.67522 -12.4762 5.34141
LeftShoulder1  0 -2.42657e-020 -4.95415e-022
LeftArm  -8.03714 8.81887 -75.3801
LeftForeArm  52.6238 -38.2698 -7.96411
LeftHand  0.20814 -4.47508 -5.702
RightShoulder  0 2.42657e-020 1.07489e-018
RightArm  -22.3351 -11.834 71.137
RightForeArm  41.5336 32.847 6.52255
RightHand  -0.280356 22.2046 -1.0589
LeftUpLeg  -14.4507 -0.779951 5.58756
LeftLeg  37.2718 4.83473 3.19899
LeftFoot  -10.3848 -0.100936 -1.11071
LeftToes  -13.8975 3.33339e-006 -4.73431e-007
286
root  39.6616 33.083 -67.4995 7.68669 -30.8065 -1.71349
RightUpLeg  -6.44714 -3.03116 2.4337
RightLeg  14.2486 -0.779057 -0.144525
RightFoot  -6.75383 -0.0184172 0.0654349
RightToes  -39.8772 -0.217503 -0.314428
Spine  5.07678 -2.63536 1.79138
Spine1  9.79421 -5.16957 2.62949
HEad  8.27402 -11.5363 3.90735
LeftShoulder1  0 -2.42657e-020 -4.95415e-022
LeftArm  -10.2186 13.3982 -76.9317
LeftForeArm  52.7533 -38.6457 -8.07341
LeftHand  0.217328 -4.60617 -5.7784
RightShoulder  0 2.42657e-020 1.07489e-018
RightArm  -20.9896 -11.8849 71.17
RightForeArm  42.5188 32.0659 6.32595
RightHand  -0.254913 22.328 -0.921859
LeftUpLeg  -14.9197 1.85672 5.31033
LeftLeg  37.4623 5.06925 3.37786
LeftFoot  -10.814 -0.114338 -1.20795
LeftToes  -13.1247 3.33339e-006 -4.73431e-007
287
root  39.6213 33.031 -67.103 8.0806 -31.643 -1.88861
RightUpLeg  -6.09914 -3.75723 2.0526
RightLeg  13.9378 0.685008 0.12472
RightFoot  -6.51485 -0.0274846 -0.105373
RightToes  -41.8431 -0.233371 -0.325295
Spine  5.20026 -2.40233 1.87156
Spine1  10.0798 -4.64364 2.66823
HEad  8.91837 -10.9887 2.96264
LeftShoulder1  0 -2.42657e-020 -4.95415e-022
LeftArm  -13.802 16.791 -79.0269
LeftForeArm  53.5919 -37.7241 -7.80503
LeftHand  0.245163 -4.96269 -6.03123
RightShoulder  0 2.42657e-020 1.07489e-018
RightArm  -18.3993 -11.2373 71.5418
RightForeArm  43.0297 31.4599 6.17612
RightHand  -0.353225 22.2195 -1.42904
LeftUpLeg  -16.0521 4.186 5.24528
LeftLeg  38.0286 4.47684 3.04829
LeftFoot  -11.228 -0.109818 -1.11717
LeftToes  -13.1642 3.33339e-006 -4.73431e-007
288
root  39.6039 32.9905 -66.6697 8.44669 -31.8 -1.87744
RightUpLeg  -5.48762 -5.58784 1.42481
RightLeg  13.1544 2.57414 0.430305
RightFoot  -5.94216 -0.0346646 -0.290369
RightToes  -44.5284 -0.255631 -0.339248
Spine  5.35177 -2.09253 1.82982
Spine1  10.3949 -3.94827 2.47682
HEad  9.3448 -11.4167 2.66282
LeftShoulder1  0 -2.42657e-020 -4.95415e-022
LeftArm  -17.2969 18.6496 -81.018
LeftForeArm  53.794 -35.6323 -7.22416
LeftHand  0.218189 -4.85951 -5.51639
RightShoulder  0 2.42657e-020 1.07489e-018
RightArm  -15.8644 -10.2434 72.5006
RightForeArm  42.666 31.1156 6.09281
RightHand  -0.3322 21.8984 -1.34739
LeftUpLeg  -18.0246 5.11585 5.35454
LeftLeg  38.9343 3.85283 2.71395
LeftFoot  -11.6881 -0.103862 -1.01473
LeftToes  -12.7425 3.33339e-006 -4.73431e-007
289
root  39.6121 32.9644 -66.2095 8.61612 -31.3165 -1.49652
RightUpLeg  -4.89599 -6.88564 0.610501
RightLeg  12.617 3.44437 0.542312
RightFoot  -5.59326 -0.0355042 -0.349299
RightToes  -45.1346 -0.260744 -0.342252
Spine  5.52586 -1.63607 1.5541
Spine1  10.7217 -2.91715 1.82315
HEad  9.30148 -13.1034 3.84117
LeftShoulder1  0 -2.42657e-020 -4.95415e-022
LeftArm  -20.4982 18.856 -82.2119
LeftForeArm  54.6574 -32.4409 -6.39454
LeftHand  0.215156 -4.9928 -5.30927
RightShoulder  0 2.42657e-020 1.07489e-018
RightArm  -14.2724 -9.26301 74.3618
RightForeArm  42.4758 30.9456 6.05192
RightHand  -0.289109 21.8482 -1.12816
LeftUpLeg  -20.6394 5.19794 5.51895
LeftLeg  39.7119 3.39951 2.46437
LeftFoot  -11.8151 -0.0949134 -0.917262
LeftToes  -12.3693 3.33339e-006 -4.73431e-007
290
root  39.6407 32.942 -65.6912 8.56851 -30.1562 -0.834305
RightUpLeg  -4.21374 -7.34785 -0.291997
RightLeg  12.3981 2.69663 0.414364
RightFoot  -5.58353 -0.0310322 -0.258851
RightToes  -44.1189 -0.252194 -0.337187
Spine  5.81445 -1.12134 1.10873
Spine1  11.2467 -1.7329 0.837997
HEad  8.67802 -15.8134 5.39204
LeftShoulder1  0 -2.42657e-020 -4.95415e-022
LeftArm  -22.6101 17.975 -82.3349
LeftForeArm  55.7371 -29.599 -5.70482
LeftHand  0.228002 -5.00342 -5.59262
RightShoulder  0 2.42657e-020 1.07489e-018
RightArm  -13.3805 -7.79486 76.8305
RightForeArm  42.085 30.7974 6.01671
RightHand  -0.244197 21.8389 -0.895979
LeftUpLeg  -23.612 4.67389 5.77102
LeftLeg  39.9249 2.94315 2.15018
LeftFoot  -12.249 -0.0889038 -0.828538
LeftToes  -12.2489 3.33339e-006 -4.73431e-007
291
root  39.694 32.8882 -65.1271 8.42081 -28.1322 -0.0250092
RightUpLeg  -3.44964 -8.39606 -1.30569
RightLeg  12.5211 1.56541 0.24445
RightFoot  -6.00719 -0.0270265 -0.137541
RightToes  -43.2747 -0.245157 -0.332863
Spine  6.23363 -0.714398 0.628414
Spine1  11.9989 -0.711588 -0.283526
HEad  7.56675 -18.7075 7.13165
LeftShoulder1  0 -2.42657e-020 -4.95415e-022
LeftArm  -23.3506 16.5587 -81.5326
LeftForeArm  56.101 -28.1227 -5.36279
LeftHand  0.257847 -5.14983 -6.10704
RightShoulder  0 2.42657e-020 1.07489e-018
RightArm  -12.4601 -5.73789 79.2042
RightForeArm  41.5841 31.1895 6.11223
RightHand  -0.197785 21.982 -0.648519
LeftUpLeg  -27.061 3.75129 6.07283
LeftLeg  39.7204 2.6289 1.90606
LeftFoot  -12.6664 -0.0848911 -0.764868
LeftToes  -11.4814 3.33339e-006 -4.73431e-007
292
root  39.7616 32.793 -64.5098 8.27156 -25.7372 0.814575
RightUpLeg  -2.63289 -8.77738 -2.25594
RightLeg  12.9888 -0.638902 -0.103649
RightFoot  -6.9388 -0.0151089 0.12835
RightToes  -42.3506 -0.237528 -0.328012
Spine  6.70762 -0.273044 0.159695
Spine1  12.8243 0.421493 -1.41493
HEad  6.08277 -21.928 9.13697
LeftShoulder1  0 -2.42657e-020 -4.95415e-022
LeftArm  -22.811 14.6963 -80.1832
LeftForeArm  55.544 -27.5544 -5.23525
LeftHand  0.29019 -5.24565 -6.70719
RightShoulder  0 2.42657e-020 1.07489e-018
RightArm  -11.3244 -3.30381 81.0194
RightForeArm  40.9819 32.0508 6.32429
RightHand  -0.208987 22.0666 -0.70198
LeftUpLeg  -30.652 3.23991 6.22645
LeftLeg  39.0072 3.05422 2.15734
LeftFoot  -12.6891 -0.0967324 -0.86998
LeftToes  -10.5302 3.33339e-006 -4.73431e-007
293
root  39.8512 32.6514 -63.7936 8.14908 -22.9487 1.61931
RightUpLeg  -1.73979 -10.1565 -3.3759
RightLeg  13.9092 -2.16292 -0.38909
RightFoot  -8.20867 0.000782882 0.388492
RightToes  -41.8015 -0.233032 -0.324723
Spine  7.19027 0.0930006 -0.264136
Spine1  13.6476 1.42327 -2.4795
HEad  5.44981 -24.9711 10.567
LeftShoulder1  0 -2.42657e-020 -4.95415e-022
LeftArm  -21.3162 12.7489 -78.536
LeftForeArm  54.5293 -28.0916 -5.35906
LeftHand  0.307988 -5.25595 -7.08177
RightShoulder  0 2.42657e-020 1.07489e-018
RightArm  -10.13 -0.49114 82.1034
RightForeArm  40.5219 32.9966 6.56169
RightHand  -0.288372 22.1684 -1.10222
LeftUpLeg  -34.265 3.39824 5.86454
LeftLeg  38.0674 3.90532 2.66361
LeftFoot  -12.9817 -0.125943 -1.10693
LeftToes  -8.67866 3.33339e-006 -4.73431e-007
